<?xml version="1.0" encoding="UTF-8" standalone="no"?>
<!-- Created with Inkscape (http://www.inkscape.org/) -->

<svg
   width="210mm"
   height="297mm"
   viewBox="0 0 210 297"
   version="1.1"
   id="svg5"
   inkscape:version="1.1.2 (0a00cf5339, 2022-02-04)"
   sodipodi:docname="delete01.svg"
   xmlns:inkscape="http://www.inkscape.org/namespaces/inkscape"
   xmlns:sodipodi="http://sodipodi.sourceforge.net/DTD/sodipodi-0.dtd"
   xmlns="http://www.w3.org/2000/svg"
   xmlns:svg="http://www.w3.org/2000/svg">
  <sodipodi:namedview
     id="namedview7"
     pagecolor="#ffffff"
     bordercolor="#666666"
     borderopacity="1.0"
     inkscape:pageshadow="2"
     inkscape:pageopacity="0.0"
     inkscape:pagecheckerboard="0"
     inkscape:document-units="mm"
     showgrid="false"
     inkscape:zoom="0.54866744"
     inkscape:cx="107.53326"
     inkscape:cy="745.44244"
     inkscape:window-width="1920"
     inkscape:window-height="1043"
     inkscape:window-x="0"
     inkscape:window-y="0"
     inkscape:window-maximized="1"
     inkscape:current-layer="layer1" />
  <defs
     id="defs2" />
  <g
     inkscape:label="Layer 1"
     inkscape:groupmode="layer"
     id="layer1">
    <g
       id="g836"
       inkscape:transform-center-x="-1249.3827"
       inkscape:transform-center-y="-631.80004"
       transform="matrix(32.35659,0,0,32.087644,-4082.7682,-3618.7445)">
      <path
         style="fill:#fefefe;stroke-width:0.0124023"
         d="m 126.2578,117.45604 v -3.175 h 3.175 3.175 v 3.175 3.175 h -3.175 -3.175 z m 4.61367,2.81876 c 0.23089,-0.079 0.41558,-0.26452 0.48489,-0.48712 0.0215,-0.0689 0.0403,-0.30441 0.12968,-1.62471 0.0575,-0.84925 0.10462,-1.55106 0.10468,-1.55959 7e-5,-0.0123 -0.43973,-0.0155 -2.15792,-0.0155 -1.42308,0 -2.15801,0.004 -2.15801,0.0123 0,0.0327 0.19852,2.96847 0.20546,3.03842 0.0325,0.32806 0.28513,0.60217 0.60499,0.65655 0.0352,0.006 0.6583,0.01 1.38477,0.009 l 1.32085,-0.002 z m 0.78805,-3.95422 c 0.13991,-0.0364 0.25058,-0.12603 0.31325,-0.2536 0.03,-0.061 0.0335,-0.082 0.0335,-0.19844 0,-0.1168 -0.004,-0.13735 -0.0339,-0.19932 -0.0393,-0.0801 -0.12911,-0.17608 -0.1971,-0.21077 -0.10888,-0.0555 -0.16608,-0.0612 -0.61934,-0.0612 h -0.42969 l -0.007,-0.0899 c -0.008,-0.10031 -0.0988,-0.38585 -0.15056,-0.47419 -0.044,-0.0751 -0.1448,-0.16137 -0.22771,-0.19487 l -0.0707,-0.0286 -0.80417,-0.004 c -0.87542,-0.004 -0.88852,-0.003 -1.00631,0.066 -0.0734,0.043 -0.15159,0.13064 -0.18578,0.20813 -0.0602,0.13645 -0.13074,0.37829 -0.13074,0.44817 v 0.0687 h -0.43148 c -0.46501,0 -0.52464,0.006 -0.62892,0.0676 -0.0733,0.043 -0.15171,0.12779 -0.1897,0.20516 -0.03,0.0611 -0.0336,0.0821 -0.0336,0.19852 0,0.11643 0.004,0.13746 0.0336,0.19852 0.038,0.0775 0.11638,0.16213 0.19,0.20534 0.11737,0.0689 0.006,0.0657 2.34423,0.0666 1.91255,7.3e-4 2.16693,-0.001 2.23243,-0.0184 z m -3.0924,-0.93821 c -0.008,-0.008 -0.0149,-0.0263 -0.0149,-0.0403 0,-0.0392 0.0867,-0.29021 0.1074,-0.31091 0.0277,-0.0277 1.51862,-0.0277 1.54634,0 0.0207,0.0207 0.1074,0.27169 0.1074,0.31091 0,0.014 -0.007,0.0321 -0.0149,0.0403 -0.0215,0.0215 -1.70984,0.0215 -1.73136,0 z"
         id="path852" />
      <path
         style="fill:#ebe9e8;stroke-width:0.0124023"
         d="m 128.15303,120.30011 c 0.009,-0.004 0.0197,-0.003 0.0238,9.8e-4 0.004,0.004 -0.003,0.007 -0.0163,0.007 -0.0144,-6e-4 -0.0174,-0.004 -0.007,-0.007 z m 2.54248,0 c 0.009,-0.004 0.0196,-0.003 0.0238,9.8e-4 0.004,0.004 -0.003,0.007 -0.0163,0.007 -0.0145,-6e-4 -0.0174,-0.004 -0.007,-0.007 z m -3.28331,-1.58627 c 5.9e-4,-0.0144 0.004,-0.0174 0.007,-0.007 0.004,0.009 0.003,0.0196 -9.8e-4,0.0238 -0.004,0.004 -0.007,-0.003 -0.007,-0.0163 z m 1.40668,-0.0296 c -0.0273,-0.0142 -0.0608,-0.041 -0.0744,-0.0596 -0.0239,-0.0325 -0.0249,-0.0562 -0.0283,-0.62989 l -0.003,-0.59608 0.0282,-0.0415 c 0.0451,-0.0663 0.0886,-0.092 0.15532,-0.0918 0.0717,2.5e-4 0.12802,0.0279 0.1665,0.0819 l 0.0289,0.0405 v 0.5975 c 0,0.58413 -5.8e-4,0.59827 -0.0256,0.63175 -0.0648,0.0869 -0.15979,0.11265 -0.24728,0.0672 z m 1.06599,0.007 c -0.0499,-0.0217 -0.10202,-0.085 -0.11109,-0.13485 -0.004,-0.022 -0.006,-0.29388 -0.004,-0.60425 l 0.004,-0.5643 0.0289,-0.0405 c 0.0385,-0.054 0.0948,-0.0816 0.1665,-0.0819 0.0667,-2.3e-4 0.11019,0.0255 0.15532,0.0918 l 0.0282,0.0415 -0.003,0.59608 c -0.003,0.5736 -0.004,0.59735 -0.0283,0.63 -0.0304,0.0416 -0.11294,0.0841 -0.16205,0.0834 -0.02,-2.7e-4 -0.0534,-0.008 -0.0742,-0.017 z m 1.64491,-1.26723 c 5.9e-4,-0.0145 0.004,-0.0174 0.007,-0.007 0.004,0.009 0.003,0.0196 -9.8e-4,0.0238 -0.004,0.004 -0.007,-0.003 -0.007,-0.0163 z"
         id="path850" />
      <path
         style="fill:#f5bcc0;stroke-width:0.0124023"
         d="m 128.80338,120.29928 c 0.34618,-0.002 0.91266,-0.002 1.25884,0 0.34618,0.002 0.0629,0.003 -0.62942,0.003 -0.69236,0 -0.9756,-0.002 -0.62942,-0.003 z m -1.32917,-0.69247 c 5.9e-4,-0.0144 0.004,-0.0174 0.007,-0.007 0.004,0.009 0.003,0.0196 -9.8e-4,0.0238 -0.004,0.004 -0.007,-0.003 -0.007,-0.0163 z m 3.90674,0 c 5.9e-4,-0.0144 0.004,-0.0174 0.007,-0.007 0.004,0.009 0.003,0.0196 -9.8e-4,0.0238 -0.004,0.004 -0.007,-0.003 -0.007,-0.0163 z m -3.91914,-0.18603 c 5.9e-4,-0.0144 0.004,-0.0174 0.007,-0.007 0.004,0.009 0.003,0.0196 -9.8e-4,0.0238 -0.004,0.004 -0.007,-0.003 -0.007,-0.0163 z m 3.93154,0 c 5.9e-4,-0.0144 0.004,-0.0174 0.007,-0.007 0.004,0.009 0.003,0.0196 -9.8e-4,0.0238 -0.004,0.004 -0.007,-0.003 -0.007,-0.0163 z m -3.99356,-0.91778 c 6e-4,-0.0144 0.004,-0.0174 0.008,-0.007 0.004,0.009 0.003,0.0196 -9.8e-4,0.0238 -0.004,0.004 -0.007,-0.003 -0.007,-0.0163 z m 4.05557,0 c 6e-4,-0.0144 0.004,-0.0174 0.007,-0.007 0.004,0.009 0.003,0.0196 -9.7e-4,0.0238 -0.004,0.004 -0.007,-0.003 -0.007,-0.0163 z m -4.06797,-0.18603 c 6e-4,-0.0144 0.004,-0.0174 0.008,-0.007 0.004,0.009 0.003,0.0197 -9.8e-4,0.0238 -0.004,0.004 -0.007,-0.003 -0.007,-0.0163 z m 4.08037,0 c 6e-4,-0.0144 0.004,-0.0174 0.007,-0.007 0.004,0.009 0.003,0.0197 -9.8e-4,0.0238 -0.004,0.004 -0.007,-0.003 -0.007,-0.0163 z m 0.0124,-0.18604 c 5.9e-4,-0.0144 0.004,-0.0174 0.007,-0.007 0.004,0.009 0.003,0.0196 -9.8e-4,0.0238 -0.004,0.004 -0.007,-0.003 -0.007,-0.0163 z m -4.15479,-0.73173 c 6e-4,-0.0144 0.004,-0.0174 0.007,-0.007 0.004,0.009 0.003,0.0196 -9.8e-4,0.0238 -0.004,0.004 -0.007,-0.003 -0.007,-0.0163 z m -0.0124,-0.18604 c 5.9e-4,-0.0144 0.004,-0.0174 0.007,-0.007 0.004,0.009 0.003,0.0196 -9.8e-4,0.0238 -0.004,0.004 -0.007,-0.003 -0.007,-0.0163 z m 4.2292,0 c 5.9e-4,-0.0144 0.004,-0.0174 0.007,-0.007 0.004,0.009 0.003,0.0196 -9.8e-4,0.0238 -0.004,0.004 -0.007,-0.003 -0.007,-0.0163 z m -4.2416,-0.18603 c 5.9e-4,-0.0144 0.004,-0.0174 0.007,-0.007 0.004,0.009 0.003,0.0196 -9.8e-4,0.0238 -0.004,0.004 -0.007,-0.003 -0.007,-0.0163 z m 4.254,0 c 6e-4,-0.0144 0.004,-0.0174 0.007,-0.007 0.004,0.009 0.003,0.0196 -9.8e-4,0.0238 -0.004,0.004 -0.007,-0.003 -0.007,-0.0163 z m -3.19768,-0.43615 c 0.59174,-0.002 1.56006,-0.002 2.1518,0 0.59175,0.002 0.10759,0.003 -1.0759,0.003 -1.18349,0 -1.66765,-0.001 -1.0759,-0.003 z m 0,-0.26045 c 0.59174,-0.002 1.56006,-0.002 2.1518,0 0.59175,0.002 0.10759,0.003 -1.0759,0.003 -1.18349,0 -1.66765,-10e-4 -1.0759,-0.003 z m -0.86277,-0.93016 c 0.11723,-0.002 0.31257,-0.002 0.43409,0 0.12151,0.002 0.0256,0.004 -0.21314,0.004 -0.23875,0 -0.33817,-0.002 -0.22095,-0.004 z m 3.43545,0 c 0.11723,-0.002 0.31257,-0.002 0.43409,0 0.12151,0.002 0.0256,0.004 -0.21315,0.004 -0.23874,0 -0.33816,-0.002 -0.22094,-0.004 z m -1.88435,-0.79376 c 0.21316,-0.002 0.56198,-0.002 0.77514,0 0.21317,0.002 0.0388,0.003 -0.38757,0.003 -0.42633,0 -0.60074,-0.002 -0.38757,-0.003 z"
         id="path848" />
      <path
         style="fill:#edadb1;stroke-width:0.0124023"
         d="m 128.70677,117.98314 c 0,-0.30696 0.002,-0.43076 0.004,-0.27511 0.002,0.15565 0.002,0.4068 0,0.55811 -0.002,0.15131 -0.004,0.024 -0.004,-0.283 z m 1.45107,0 c 1e-5,-0.30696 0.002,-0.43076 0.004,-0.27511 0.002,0.15565 0.002,0.4068 -1e-5,0.55811 -0.002,0.15131 -0.004,0.024 -0.004,-0.283 z"
         id="path846" />
      <path
         style="fill:#ef8d94;stroke-width:0.0124023"
         d="m 129.01422,115.40036 c 0.23022,-0.002 0.60694,-0.002 0.83716,0 0.23022,0.002 0.0419,0.003 -0.41858,0.003 -0.46044,0 -0.6488,-0.002 -0.41858,-0.003 z m -0.66042,-0.64031 c 0,-0.003 0.01,-0.0123 0.0217,-0.0217 0.0197,-0.0154 0.0201,-0.015 0.005,0.005 -0.0162,0.0207 -0.0264,0.0272 -0.0264,0.017 z m 2.13162,-0.017 c -0.0154,-0.0197 -0.015,-0.0201 0.005,-0.005 0.0207,0.0162 0.0272,0.0264 0.017,0.0264 -0.003,0 -0.0123,-0.01 -0.0217,-0.0217 z"
         id="path844" />
      <path
         style="fill:#ed7a84;stroke-width:0.0124023"
         d="m 127.68909,120.08224 -0.0236,-0.0279 0.0279,0.0236 c 0.0153,0.013 0.0279,0.0255 0.0279,0.0279 0,0.01 -0.01,0.003 -0.0322,-0.0236 z m 3.47384,0.003 c 0.0123,-0.0136 0.0252,-0.0248 0.0286,-0.0248 0.003,0 -0.004,0.0112 -0.0162,0.0248 -0.0123,0.0136 -0.0252,0.0248 -0.0286,0.0248 -0.003,0 0.004,-0.0112 0.0162,-0.0248 z m -2.0593,-2.1022 c 1e-5,-0.30014 0.002,-0.42115 0.004,-0.26891 0.002,0.15224 0.002,0.39781 -1e-5,0.5457 -0.002,0.1479 -0.004,0.0234 -0.004,-0.27679 z m 0.65732,0.006 c 0,-0.29673 0.002,-0.41811 0.004,-0.26975 0.002,0.14836 0.002,0.39114 0,0.5395 -0.002,0.14836 -0.004,0.027 -0.004,-0.26975 z m -1.61512,-2.6541 c 0,-0.0239 0.003,-0.0336 0.006,-0.0217 0.003,0.0119 0.003,0.0315 0,0.0434 -0.003,0.0119 -0.006,0.002 -0.006,-0.0217 z m 2.56683,0.006 c 2.5e-4,-0.0205 0.003,-0.0273 0.006,-0.0153 0.003,0.0121 0.003,0.0288 -4.6e-4,0.0372 -0.003,0.008 -0.006,-0.001 -0.006,-0.0219 z m -1.65503,-0.33796 c 0.20634,-0.002 0.544,-0.002 0.75034,0 0.20634,0.002 0.0375,0.003 -0.37517,0.003 -0.41269,0 -0.58151,-0.002 -0.37517,-0.003 z"
         id="path842" />
      <path
         style="fill:#e8626c;stroke-width:0.0124023"
         d="m 127.437,118.96189 c 6e-4,-0.0144 0.004,-0.0174 0.007,-0.007 0.004,0.009 0.003,0.0196 -9.7e-4,0.0238 -0.004,0.004 -0.007,-0.003 -0.007,-0.0163 z m -0.0124,-0.18603 c 5.9e-4,-0.0144 0.004,-0.0174 0.007,-0.007 0.004,0.009 0.003,0.0196 -9.8e-4,0.0238 -0.004,0.004 -0.007,-0.003 -0.007,-0.0163 z m 4.00596,0 c 5.9e-4,-0.0144 0.004,-0.0174 0.007,-0.007 0.004,0.009 0.003,0.0196 -9.8e-4,0.0238 -0.004,0.004 -0.007,-0.003 -0.007,-0.0163 z m -4.01836,-0.18604 c 5.9e-4,-0.0144 0.004,-0.0174 0.007,-0.007 0.004,0.009 0.003,0.0196 -9.8e-4,0.0238 -0.004,0.004 -0.007,-0.003 -0.007,-0.0163 z m 4.03076,0 c 5.9e-4,-0.0144 0.004,-0.0174 0.007,-0.007 0.004,0.009 0.003,0.0196 -9.8e-4,0.0238 -0.004,0.004 -0.007,-0.003 -0.007,-0.0163 z m -4.09277,-0.91777 c 5.9e-4,-0.0144 0.004,-0.0174 0.007,-0.007 0.004,0.009 0.003,0.0196 -9.8e-4,0.0238 -0.004,0.004 -0.007,-0.003 -0.007,-0.0163 z m 4.15478,0 c 6e-4,-0.0144 0.004,-0.0174 0.007,-0.007 0.004,0.009 0.003,0.0196 -9.8e-4,0.0238 -0.004,0.004 -0.007,-0.003 -0.007,-0.0163 z m -4.16719,-0.18604 c 6e-4,-0.0144 0.004,-0.0174 0.008,-0.007 0.004,0.009 0.003,0.0196 -9.8e-4,0.0238 -0.004,0.004 -0.007,-0.003 -0.007,-0.0163 z m 4.17959,0 c 6e-4,-0.0144 0.004,-0.0174 0.007,-0.007 0.004,0.009 0.003,0.0196 -9.8e-4,0.0238 -0.004,0.004 -0.007,-0.003 -0.007,-0.0163 z m -1.76113,-0.0496 c 6e-4,-0.0145 0.004,-0.0174 0.007,-0.007 0.004,0.009 0.003,0.0196 -9.8e-4,0.0238 -0.004,0.004 -0.007,-0.003 -0.007,-0.0163 z m 1.77354,-0.13642 c 5.9e-4,-0.0145 0.004,-0.0174 0.007,-0.008 0.004,0.009 0.003,0.0196 -9.8e-4,0.0238 -0.004,0.004 -0.007,-0.003 -0.007,-0.0163 z m -4.54762,-1.11208 -0.0236,-0.0279 0.0279,0.0236 c 0.0262,0.0222 0.0336,0.0322 0.0236,0.0322 -0.002,0 -0.0149,-0.0126 -0.0279,-0.0279 z m 4.8877,0.003 c 0.0123,-0.0136 0.0252,-0.0248 0.0286,-0.0248 0.003,0 -0.004,0.0112 -0.0162,0.0248 -0.0123,0.0136 -0.0252,0.0248 -0.0286,0.0248 -0.003,0 0.004,-0.0112 0.0162,-0.0248 z m -4.88652,-0.64492 c 0.0123,-0.0136 0.0252,-0.0248 0.0286,-0.0248 0.003,0 -0.004,0.0112 -0.0162,0.0248 -0.0123,0.0136 -0.0252,0.0248 -0.0286,0.0248 -0.003,0 0.004,-0.0112 0.0162,-0.0248 z m 4.88534,-0.003 -0.0236,-0.0279 0.0279,0.0236 c 0.0262,0.0222 0.0335,0.0322 0.0236,0.0322 -0.002,0 -0.0149,-0.0126 -0.0279,-0.0279 z"
         id="path840" />
      <path
         style="fill:#e53845;stroke-width:0.0124023"
         d="m 128.05614,120.27683 c -0.27807,-0.0599 -0.50022,-0.28903 -0.55266,-0.56993 -0.0139,-0.0743 -0.21674,-2.96688 -0.21636,-3.08492 7e-5,-0.0206 0.11054,-0.0217 2.14568,-0.0217 2.03515,0 2.14561,0.001 2.14564,0.0217 2e-4,0.12047 -0.20246,3.01079 -0.21631,3.08492 -0.053,0.2839 -0.2756,0.51114 -0.55887,0.57062 -0.12585,0.0264 -2.62425,0.0258 -2.74712,-6.9e-4 z m 0.91507,-1.57501 c 0.0655,-0.0274 0.10944,-0.074 0.12602,-0.13373 0.0101,-0.0365 0.0132,-0.21519 0.0106,-0.60976 -0.004,-0.5371 -0.005,-0.55973 -0.0292,-0.60147 -0.0769,-0.13088 -0.25153,-0.13515 -0.34545,-0.008 -0.0253,0.0341 -0.026,0.0491 -0.0297,0.60771 -0.003,0.37854 6.7e-4,0.58801 0.009,0.61783 0.0224,0.0769 0.10698,0.14179 0.19014,0.146 0.0122,6.2e-4 0.0429,-0.008 0.0682,-0.0181 z m 1.10196,-0.019 c 0.022,-0.0136 0.0517,-0.0489 0.066,-0.0785 0.0255,-0.0526 0.026,-0.0663 0.0226,-0.63736 -0.003,-0.56992 -0.004,-0.58438 -0.0294,-0.61856 -0.0456,-0.0616 -0.10119,-0.0908 -0.17249,-0.0908 -0.0819,0 -0.13855,0.0357 -0.17673,0.11125 -0.0277,0.0548 -0.0279,0.0593 -0.0279,0.61111 0,0.58849 0.002,0.60597 0.0594,0.6711 0.0617,0.0695 0.17494,0.0834 0.25852,0.0318 z m -2.86354,-2.3688 c -0.13433,-0.0319 -0.27075,-0.15188 -0.31976,-0.28122 -0.0369,-0.0974 -0.0368,-0.2314 1.7e-4,-0.32905 0.0379,-0.0999 0.13775,-0.20536 0.23863,-0.25195 l 0.0779,-0.036 0.47439,-0.004 0.47439,-0.004 v -0.0773 c 0,-0.0597 0.014,-0.11905 0.0615,-0.26095 0.0338,-0.10101 0.0754,-0.20731 0.0923,-0.23622 0.0415,-0.0708 0.11983,-0.13942 0.20433,-0.17904 l 0.0697,-0.0327 h 0.84956 0.84956 l 0.0688,0.0323 c 0.0848,0.0398 0.15397,0.0992 0.20022,0.17199 0.0557,0.0876 0.15888,0.41714 0.15888,0.50724 v 0.0747 l 0.47439,0.004 0.47439,0.004 0.0779,0.036 c 0.16387,0.0757 0.26582,0.23549 0.26582,0.41671 0,0.18068 -0.0947,0.33034 -0.26072,0.41208 l -0.0825,0.0406 -2.20168,0.002 c -1.25401,10e-4 -2.22172,-0.003 -2.24824,-0.009 z m 3.09346,-0.92492 c 0.0125,-0.0113 0.0227,-0.0297 0.0227,-0.0409 0,-0.041 -0.1,-0.31732 -0.12027,-0.33236 -0.0304,-0.0226 -1.51499,-0.0226 -1.5454,0 -0.0197,0.0146 -0.12027,0.29081 -0.12027,0.3302 0,0.01 0.009,0.0284 0.0205,0.0409 0.0195,0.0215 0.0628,0.0227 0.87029,0.0227 0.7733,0 0.8518,-0.002 0.87244,-0.0205 z"
         id="path838" />
    </g>
  </g>
</svg>
