<?xml version="1.0" encoding="UTF-8" standalone="no"?>
<!-- Created with Inkscape (http://www.inkscape.org/) -->

<svg
   width="210mm"
   height="297mm"
   viewBox="0 0 210 297"
   version="1.1"
   id="svg5"
   sodipodi:docname="delete02.svg"
   inkscape:version="1.1.2 (0a00cf5339, 2022-02-04)"
   xmlns:inkscape="http://www.inkscape.org/namespaces/inkscape"
   xmlns:sodipodi="http://sodipodi.sourceforge.net/DTD/sodipodi-0.dtd"
   xmlns="http://www.w3.org/2000/svg"
   xmlns:svg="http://www.w3.org/2000/svg">
  <sodipodi:namedview
     id="namedview7"
     pagecolor="#ffffff"
     bordercolor="#666666"
     borderopacity="1.0"
     inkscape:pageshadow="2"
     inkscape:pageopacity="0.0"
     inkscape:pagecheckerboard="0"
     inkscape:document-units="mm"
     showgrid="false"
     inkscape:zoom="0.54866744"
     inkscape:cx="133.04963"
     inkscape:cy="554.06969"
     inkscape:window-width="1920"
     inkscape:window-height="1043"
     inkscape:window-x="0"
     inkscape:window-y="0"
     inkscape:window-maximized="1"
     inkscape:current-layer="layer1" />
  <defs
     id="defs2" />
  <g
     inkscape:label="Layer 1"
     inkscape:groupmode="layer"
     id="layer1">
    <path
       style="fill:#000000;stroke-width:0.0124023"
       id="path999"
       d="" />
    <g
       id="g4579"
       transform="matrix(1.5141691,0,0,1.5179003,4.7821944,6.6571168)">
      <path
         style="fill:#fdbfc0;stroke-width:0.264583"
         d="m 112.02129,148.04142 c 0,-0.0455 0.38696,-0.43249 0.8599,-0.85989 l 0.85989,-0.77711 -0.7771,0.8599 c -0.72437,0.80154 -0.94269,0.98151 -0.94269,0.7771 z m -92.624184,-0.90939 -0.641433,-0.72761 0.727604,0.64143 c 0.680056,0.59952 0.848939,0.81378 0.641433,0.81378 -0.04739,0 -0.374816,-0.32742 -0.727604,-0.7276 z m -2.38125,-2.38125 -0.641433,-0.72761 0.727604,0.64143 c 0.680056,0.59952 0.848939,0.81378 0.641433,0.81378 -0.04739,0 -0.374816,-0.32742 -0.727604,-0.7276 z m 98.445024,-0.19844 c 0.34177,-0.3638 0.68094,-0.66146 0.7537,-0.66146 0.0728,0 -0.14734,0.29766 -0.48912,0.66146 -0.34178,0.3638 -0.68094,0.66146 -0.7537,0.66146 -0.0728,0 0.14734,-0.29766 0.48912,-0.66146 z M 89.288017,131.30112 c 0.0127,-0.30822 0.07539,-0.37091 0.15985,-0.15985 0.07643,0.191 0.06703,0.4192 -0.02088,0.50712 -0.08792,0.0879 -0.150453,-0.0684 -0.138965,-0.34727 z m -32.862971,-3.74826 c -0.329107,-0.41964 -0.319749,-0.429 0.0999,-0.0999 0.254661,0.19973 0.463021,0.40808 0.463021,0.46303 0,0.21776 -0.217273,0.0776 -0.562917,-0.36313 z m -13.968277,-0.48507 c 0.0127,-0.30822 0.07539,-0.37092 0.159851,-0.15985 0.07643,0.19099 0.06703,0.4192 -0.02088,0.50712 -0.08792,0.0879 -0.150453,-0.0684 -0.138964,-0.34727 z m 18.095073,-16.6467 c 3.4e-5,-8.87677 0.03334,-12.469846 0.07402,-7.98461 0.04068,4.48523 0.04065,11.74804 -6.1e-5,16.13958 -0.04071,4.39154 -0.074,0.7218 -0.07396,-8.15497 z m -18.888823,5.00504 c 0.0127,-0.30823 0.07539,-0.37092 0.159851,-0.15986 0.07643,0.191 0.06703,0.4192 -0.02088,0.50712 -0.08792,0.0879 -0.150453,-0.0684 -0.138964,-0.34726 z m 49.477081,-9.525 c 0.0127,-0.30823 0.07539,-0.37092 0.159851,-0.15986 0.07643,0.191 0.06703,0.4192 -0.02088,0.50712 -0.08792,0.0879 -0.150453,-0.0683 -0.138964,-0.34726 z m -50.270831,-2.11667 c 0.0127,-0.30823 0.07539,-0.37092 0.159851,-0.15985 0.07643,0.19099 0.06703,0.4192 -0.02088,0.50712 -0.08792,0.0879 -0.150453,-0.0684 -0.138964,-0.34727 z m -0.529167,-7.672917 c 0.0127,-0.308226 0.07539,-0.370919 0.159851,-0.159853 0.07643,0.190995 0.06703,0.419198 -0.02088,0.507119 -0.08792,0.08792 -0.150452,-0.06835 -0.138964,-0.347266 z m 33.515047,-3.725055 c 0.181901,-0.0734 0.479558,-0.0734 0.661459,0 0.181901,0.0734 0.03307,0.133453 -0.330729,0.133453 -0.363802,0 -0.512631,-0.06006 -0.33073,-0.133453 z m 41.585701,-40.769041 -0.64143,-0.727604 0.7276,0.641433 c 0.68006,0.599516 0.84894,0.813776 0.64143,0.813776 -0.0474,0 -0.37481,-0.327422 -0.7276,-0.727605 z M 17.035881,51.41901 c 0.341775,-0.363802 0.680939,-0.661458 0.7537,-0.661458 0.07276,0 -0.147342,0.297656 -0.489116,0.661458 -0.341774,0.363802 -0.680939,0.661458 -0.7537,0.661458 -0.07276,0 0.147342,-0.297656 0.489116,-0.661458 z m 2.38125,-2.38125 c 0.341774,-0.363802 0.680939,-0.661458 0.7537,-0.661458 0.07276,0 -0.147342,0.297656 -0.489116,0.661458 -0.341775,0.363802 -0.680939,0.661458 -0.7537,0.661458 -0.07276,0 0.147342,-0.297656 0.489116,-0.661458 z m 93.113299,-0.330729 -0.64143,-0.727604 0.72761,0.641433 c 0.68005,0.599516 0.84894,0.813775 0.64143,0.813775 -0.0474,0 -0.37482,-0.327422 -0.72761,-0.727604 z"
         id="path4593" />
      <path
         style="fill:#fdabac;stroke-width:0.264583"
         d="m 18.201368,145.9414 -0.504028,-0.59531 0.595312,0.50403 c 0.559447,0.47366 0.715762,0.68659 0.504028,0.68659 -0.05021,0 -0.318097,-0.26789 -0.595312,-0.59531 z m 95.936592,-0.0661 c 0.34178,-0.36381 0.68094,-0.66146 0.7537,-0.66146 0.0728,0 -0.14734,0.29765 -0.48912,0.66146 -0.34177,0.3638 -0.68094,0.66145 -0.7537,0.66145 -0.0728,0 0.14734,-0.29765 0.48912,-0.66145 z M 71.928866,110.2888 c 0,-8.80401 0.03332,-12.405652 0.07405,-8.00365 0.04073,4.40201 0.04073,11.60529 0,16.00729 -0.04073,4.40201 -0.07405,0.80037 -0.07405,-8.00364 z m 42.060154,-60.126561 -0.7771,-0.859896 0.85989,0.777106 c 0.80155,0.724371 0.98152,0.942686 0.77711,0.942686 -0.0455,0 -0.43249,-0.386953 -0.8599,-0.859896 z m -95.762514,0.06615 c 0.263389,-0.291042 0.538421,-0.529167 0.611181,-0.529167 0.07276,0 -0.08321,0.238125 -0.346597,0.529167 -0.263389,0.291042 -0.538421,0.529167 -0.611181,0.529167 -0.07276,0 0.08321,-0.238125 0.346597,-0.529167 z"
         id="path4591" />
      <path
         style="fill:#fd8f90;stroke-width:0.264583"
         d="m 52.953067,85.219585 c 7.312422,-0.0391 19.278202,-0.0391 26.590624,0 7.312421,0.0391 1.329531,0.0711 -13.295312,0.0711 -14.624843,0 -20.607733,-0.03199 -13.295312,-0.0711 z m -2.645833,-4.497933 c 8.76763,-0.03867 23.11466,-0.03867 31.88229,0 8.76763,0.03867 1.594115,0.07032 -15.941145,0.07032 -17.53526,0 -24.708775,-0.03164 -15.941145,-0.07032 z"
         id="path4589" />
      <path
         style="fill:#fc7e81;stroke-width:0.264583"
         d="m 76.426783,110.2888 c 0,-8.80401 0.03332,-12.405652 0.07405,-8.00365 0.04073,4.40201 0.04073,11.60529 0,16.00729 -0.04073,4.40201 -0.07405,0.80037 -0.07405,-8.00364 z"
         id="path4587" />
      <path
         style="fill:#fc6063;stroke-width:0.264583"
         d="m 62.494603,165.67056 c 0.190995,-0.0764 0.419198,-0.067 0.507119,0.0209 0.08792,0.0879 -0.06835,0.15045 -0.347266,0.13897 -0.308226,-0.0127 -0.370919,-0.0754 -0.159853,-0.15985 z m 7.14375,0 c 0.190995,-0.0764 0.4192,-0.067 0.507119,0.0209 0.08792,0.0879 -0.06835,0.15045 -0.347266,0.13897 -0.308226,-0.0127 -0.370919,-0.0754 -0.159853,-0.15985 z m 19.649664,-32.78194 c 0.0127,-0.30822 0.07539,-0.37091 0.15985,-0.15985 0.07643,0.191 0.06703,0.4192 -0.02088,0.50712 -0.08792,0.0879 -0.150453,-0.0684 -0.138965,-0.34727 z m -46.566665,-0.26458 c 0.0127,-0.30822 0.07539,-0.37092 0.159851,-0.15985 0.07643,0.19099 0.06703,0.4192 -0.02088,0.50712 -0.08792,0.0879 -0.150452,-0.0684 -0.138964,-0.34727 z m 13.332573,-22.20295 c 3.5e-5,-8.87677 0.03335,-12.469846 0.07403,-7.98461 0.04068,4.48523 0.04065,11.74804 -6.1e-5,16.13958 -0.04071,4.39154 -0.074,0.7218 -0.07397,-8.15497 z m -14.126323,10.56129 c 0.0127,-0.30823 0.07539,-0.37092 0.159851,-0.15986 0.07643,0.191 0.06703,0.4192 -0.02088,0.50712 -0.08792,0.0879 -0.150452,-0.0683 -0.138964,-0.34726 z m 48.418748,-2.64584 c 0.0127,-0.30822 0.07539,-0.37092 0.159851,-0.15985 0.07643,0.19099 0.06703,0.4192 -0.02088,0.50712 -0.08792,0.0879 -0.150453,-0.0683 -0.138964,-0.34727 z m 0.79375,-10.84791 c 0.0127,-0.30823 0.07539,-0.37092 0.159851,-0.15986 0.07643,0.191 0.06703,0.4192 -0.02088,0.50712 -0.08792,0.0879 -0.150453,-0.0684 -0.138964,-0.34726 z m -92.6041628,-5.82084 c 0.012696,-0.30822 0.07539,-0.37092 0.1598524,-0.15985 0.07643,0.19099 0.067031,0.4192 -0.020888,0.50712 -0.087919,0.0879 -0.1504527,-0.0684 -0.1389644,-0.34727 z m 42.0687488,0 c 0.0127,-0.30822 0.07539,-0.37092 0.15985,-0.15985 0.07643,0.19099 0.06703,0.4192 -0.02087,0.50712 -0.08792,0.0879 -0.150453,-0.0684 -0.138965,-0.34727 z m 93.133324,0 c 0.0127,-0.30822 0.0754,-0.37092 0.15986,-0.15985 0.0764,0.19099 0.067,0.4192 -0.0209,0.50712 -0.0879,0.0879 -0.15045,-0.0684 -0.13896,-0.34727 z M -1.4640628,94.524043 c 0.012696,-0.308226 0.07539,-0.370919 0.1598524,-0.159853 0.07643,0.190995 0.067031,0.419198 -0.020888,0.507119 -0.087919,0.08792 -0.1504527,-0.06835 -0.1389644,-0.347266 z m 135.2020728,0 c 0.0127,-0.308226 0.0754,-0.370919 0.15986,-0.159853 0.0764,0.190995 0.067,0.419198 -0.0209,0.507119 -0.0879,0.08792 -0.15045,-0.06835 -0.13896,-0.347266 z M 39.810936,90.026127 c 0.0127,-0.308226 0.07539,-0.370919 0.15985,-0.159853 0.07643,0.190994 0.06703,0.419198 -0.02087,0.507119 -0.08792,0.08792 -0.150453,-0.06835 -0.138965,-0.347266 z M 92.7276,85.528211 c 0.0127,-0.308227 0.07539,-0.37092 0.159851,-0.159854 0.07643,0.190995 0.06703,0.419198 -0.02088,0.507119 -0.08792,0.08792 -0.150453,-0.06835 -0.138965,-0.347265 z M 35.556714,72.353488 c 0,-0.05494 0.208359,-0.2633 0.463021,-0.463021 0.419645,-0.329107 0.429003,-0.319749 0.0999,0.0999 -0.345644,0.44073 -0.562917,0.580888 -0.562917,0.363125 z m 60.820413,-0.363125 c -0.329107,-0.419645 -0.319749,-0.429003 0.0999,-0.0999 0.254662,0.199721 0.463021,0.40808 0.463021,0.463021 0,0.217763 -0.217273,0.07761 -0.562917,-0.363125 z M 62.494603,30.468479 c 0.190995,-0.07643 0.419198,-0.06703 0.507119,0.02089 0.08792,0.08792 -0.06835,0.150453 -0.347266,0.138964 -0.308226,-0.0127 -0.370919,-0.07539 -0.159853,-0.159852 z m 7.14375,0 c 0.190995,-0.07643 0.4192,-0.06703 0.507119,0.02089 0.08792,0.08792 -0.06835,0.150453 -0.347266,0.138964 -0.308226,-0.0127 -0.370919,-0.07539 -0.159853,-0.159852 z"
         id="path4585" />
      <path
         style="fill:#fb2f32;stroke-width:0.264583"
         d="m 63.409143,165.66794 c 0.257432,-0.0671 0.614619,-0.0627 0.79375,0.01 0.179131,0.0725 -0.03149,0.12736 -0.468056,0.12197 -0.436562,-0.005 -0.583125,-0.0647 -0.325694,-0.13177 z m 5.027083,0 c 0.257432,-0.0671 0.61462,-0.0627 0.79375,0.01 0.179131,0.0725 -0.03149,0.12736 -0.468055,0.12197 -0.436563,-0.005 -0.583126,-0.0647 -0.325695,-0.13177 z m -8.852039,-0.26197 c 0.190994,-0.0764 0.419197,-0.067 0.507119,0.0209 0.08792,0.0879 -0.06835,0.15045 -0.347266,0.13896 -0.308226,-0.0127 -0.370919,-0.0754 -0.159853,-0.15985 z m 12.964582,0 c 0.190995,-0.0764 0.419201,-0.067 0.507119,0.0209 0.08792,0.0879 -0.06835,0.15045 -0.347265,0.13896 -0.308227,-0.0127 -0.37092,-0.0754 -0.159854,-0.15985 z m 39.075651,-17.28176 c 0.26339,-0.29104 0.53842,-0.52916 0.61118,-0.52916 0.0728,0 -0.0832,0.23812 -0.3466,0.52916 -0.26339,0.29105 -0.53842,0.52917 -0.61118,0.52917 -0.0728,0 0.0832,-0.23812 0.3466,-0.52917 z m -91.306386,-0.33073 -0.504028,-0.59531 0.595313,0.50403 c 0.559447,0.47366 0.715761,0.6866 0.504028,0.6866 -0.05021,0 -0.318097,-0.26789 -0.595313,-0.59532 z m -4.095928,-4.10104 -0.641433,-0.7276 0.727604,0.64143 c 0.400183,0.35279 0.727604,0.68021 0.727604,0.7276 0,0.20751 -0.214259,0.0386 -0.813775,-0.64143 z m 99.503354,0.36313 c 0,-0.0549 0.20836,-0.2633 0.46302,-0.46302 0.41965,-0.32911 0.429,-0.31975 0.0999,0.0999 -0.34565,0.44073 -0.56292,0.58089 -0.56292,0.36313 z M 42.456769,129.44904 c 0.0127,-0.30822 0.07539,-0.37092 0.159851,-0.15985 0.07643,0.19099 0.06703,0.4192 -0.02088,0.50712 -0.08792,0.0879 -0.150453,-0.0684 -0.138964,-0.34727 z m 30.107859,-1.89618 c -0.329107,-0.41964 -0.319749,-0.429 0.0999,-0.0999 0.440729,0.34565 0.580887,0.56292 0.363124,0.56292 -0.05494,0 -0.2633,-0.20836 -0.463021,-0.46302 z m 17.252555,-1.27882 c 0.0127,-0.30822 0.07539,-0.37092 0.159851,-0.15985 0.07643,0.19099 0.06703,0.4192 -0.02088,0.50712 -0.08792,0.0879 -0.150452,-0.0683 -0.138964,-0.34727 z m -47.624997,-0.79375 c 0.0127,-0.30822 0.07539,-0.37092 0.15985,-0.15985 0.07643,0.19099 0.06703,0.4192 -0.02087,0.50712 -0.08792,0.0879 -0.150453,-0.0684 -0.138965,-0.34727 z m 47.889581,-2.91041 c 0.0127,-0.30823 0.07539,-0.37092 0.15985,-0.15986 0.07643,0.191 0.06703,0.4192 -0.02088,0.50712 -0.08792,0.0879 -0.150453,-0.0684 -0.138965,-0.34726 z m -48.418748,-4.7625 c 0.0127,-0.30823 0.07539,-0.37092 0.159851,-0.15986 0.07643,0.191 0.06703,0.4192 -0.02088,0.50712 -0.08792,0.0879 -0.150453,-0.0683 -0.138964,-0.34726 z m -0.264583,-3.96875 c 0.0127,-0.30823 0.07539,-0.37092 0.15985,-0.15986 0.07643,0.191 0.06703,0.4192 -0.02088,0.50712 -0.08792,0.0879 -0.150453,-0.0683 -0.138965,-0.34726 z m 49.477081,-2.11667 c 0.0127,-0.30823 0.07539,-0.37092 0.15985,-0.15985 0.07643,0.19099 0.06703,0.4192 -0.02087,0.50711 -0.08792,0.0879 -0.150453,-0.0683 -0.138965,-0.34726 z m -49.741665,-1.5875 c 0.0127,-0.30823 0.07539,-0.37092 0.159851,-0.15985 0.07643,0.19099 0.06703,0.4192 -0.02088,0.50711 -0.08792,0.0879 -0.150452,-0.0683 -0.138964,-0.34726 z m -0.264583,-3.96875 c 0.0127,-0.30823 0.07539,-0.37092 0.159851,-0.15985 0.07643,0.19099 0.06703,0.4192 -0.02088,0.50712 -0.08792,0.0879 -0.150453,-0.0684 -0.138964,-0.34727 z m 92.604161,-1.5875 c 0.0127,-0.30823 0.0754,-0.37092 0.15985,-0.15985 0.0764,0.19099 0.067,0.4192 -0.0209,0.50712 -0.0879,0.0879 -0.15046,-0.0684 -0.13897,-0.34727 z m -134.9068008,-3.9467 c 0.00539,-0.43656 0.06469,-0.58313 0.1317736,-0.3257 0.067083,0.25744 0.062672,0.61462 -0.0098,0.79375 -0.072475,0.17913 -0.1273618,-0.0315 -0.1219697,-0.46805 z m 93.1026378,0.24253 c 0.0127,-0.30822 0.07539,-0.37092 0.15985,-0.15985 0.07643,0.19099 0.06703,0.4192 -0.02087,0.50712 -0.08792,0.0879 -0.150453,-0.0684 -0.138965,-0.34727 z m 42.099443,-0.24253 c 0.005,-0.43656 0.0647,-0.58313 0.13177,-0.3257 0.0671,0.25744 0.0627,0.61462 -0.01,0.79375 -0.0725,0.17913 -0.12736,-0.0315 -0.12197,-0.46805 z M 40.340102,98.492793 c 0.0127,-0.308226 0.07539,-0.370919 0.159851,-0.159853 0.07643,0.190995 0.06703,0.4192 -0.02088,0.507119 -0.08792,0.08792 -0.150452,-0.06835 -0.138964,-0.347266 z M 91.93385,97.169877 c 0.0127,-0.308227 0.07539,-0.37092 0.159851,-0.159854 0.07643,0.190995 0.06703,0.419198 -0.02088,0.507119 -0.08792,0.08792 -0.150453,-0.06835 -0.138964,-0.347265 z M -1.4333708,95.604424 c 0.00539,-0.436562 0.06469,-0.583125 0.1317736,-0.325694 0.067083,0.257432 0.062672,0.614619 -0.0098,0.79375 -0.072475,0.179131 -0.1273618,-0.03149 -0.1219697,-0.468056 z m 135.2020808,0 c 0.005,-0.436562 0.0647,-0.583125 0.13177,-0.325694 0.0671,0.257432 0.0627,0.614619 -0.01,0.79375 -0.0725,0.179131 -0.12736,-0.03149 -0.12197,-0.468056 z M 40.075519,94.524043 c 0.0127,-0.308226 0.07539,-0.370919 0.159851,-0.159853 0.07643,0.190995 0.06703,0.419198 -0.02088,0.507119 -0.08792,0.08792 -0.150452,-0.06835 -0.138964,-0.347266 z m 93.397911,-2.910416 c 0.0127,-0.308226 0.0754,-0.370919 0.15985,-0.159853 0.0764,0.190994 0.067,0.419197 -0.0209,0.507119 -0.0879,0.08792 -0.15046,-0.06835 -0.13897,-0.347266 z m -93.927077,-4.7625 c 0.0127,-0.308226 0.07539,-0.370919 0.15985,-0.159853 0.07643,0.190995 0.06703,0.419198 -0.02088,0.507119 -0.08792,0.08792 -0.150453,-0.06835 -0.138965,-0.347266 z M 92.7276,86.321961 c 0.0127,-0.308227 0.07539,-0.37092 0.159851,-0.159854 0.07643,0.190995 0.06703,0.419198 -0.02088,0.507119 -0.08792,0.08792 -0.150453,-0.06835 -0.138965,-0.347265 z M 52.840984,70.402906 c 7.541816,-0.03903 19.805253,-0.03902 27.252082,2.1e-5 7.446828,0.03905 1.27625,0.07098 -13.712395,0.07097 -14.988645,-1.4e-5 -21.081505,-0.03196 -13.539687,-0.07099 z M 16.242131,52.477343 c 0.341775,-0.363802 0.68094,-0.661458 0.7537,-0.661458 0.07276,0 -0.147342,0.297656 -0.489116,0.661458 -0.341774,0.363802 -0.680939,0.661459 -0.7537,0.661459 -0.07276,0 0.147342,-0.297657 0.489116,-0.661459 z m 99.855069,0.06615 -0.50403,-0.595312 0.59531,0.504028 c 0.55945,0.473661 0.71576,0.686597 0.50403,0.686597 -0.0502,0 -0.3181,-0.267891 -0.59531,-0.595313 z M 20.210881,48.54099 c 0,-0.05494 0.20836,-0.263301 0.463021,-0.46302 0.419644,-0.329108 0.429002,-0.31975 0.0999,0.09989 -0.345644,0.440729 -0.562916,0.580887 -0.562916,0.363126 z m 91.388399,-0.495417 -0.50403,-0.595313 0.59531,0.504028 c 0.55945,0.473662 0.71577,0.686597 0.50403,0.686597 -0.0502,0 -0.3181,-0.267891 -0.59531,-0.595312 z M 63.409143,30.465866 c 0.257432,-0.06708 0.614619,-0.06267 0.79375,0.0098 0.179131,0.07248 -0.03149,0.127362 -0.468056,0.12197 -0.436562,-0.0054 -0.583125,-0.06469 -0.325694,-0.131773 z m 5.027083,0 c 0.257432,-0.06708 0.61462,-0.06267 0.79375,0.0098 0.179131,0.07248 -0.03149,0.127362 -0.468055,0.12197 -0.436563,-0.0054 -0.583126,-0.06469 -0.325695,-0.131773 z"
         id="path4583" />
      <path
         style="fill:#fb0004;stroke-width:0.264583"
         d="M 61.353588,165.55077 C 30.560561,163.36602 4.7082339,139.88412 -0.40940263,109.4509 -4.0538365,87.778415 2.9195659,65.97835 18.49109,50.364677 37.023127,31.782477 64.508789,25.636825 89.294536,34.533393 c 6.211176,2.229432 14.006234,6.658878 19.551754,11.110048 12.43848,9.983868 21.42819,25.359667 24.05409,41.141596 3.62006,21.756943 -3.34587,43.543043 -18.89388,59.091053 -11.73287,11.73288 -26.76435,18.53744 -43.524788,19.70315 -4.244292,0.29519 -4.581104,0.29414 -9.128124,-0.0285 z m 26.576288,-28.4353 c 0.451006,-0.3795 0.939057,-0.91243 1.084551,-1.18429 0.145497,-0.27187 1.030946,-11.06394 1.967664,-23.9824 0.93672,-12.918459 1.77697,-24.232246 1.867225,-25.141751 l 0.164097,-1.653646 H 66.269437 c -14.709184,0 -26.742463,0.0893 -26.740616,0.198438 0.0441,2.605733 3.482261,49.894439 3.661984,50.367149 0.141819,0.37301 0.634426,0.99507 1.094682,1.38235 l 0.836827,0.70414 h 20.993773 20.993774 z m -30.545038,-9.13413 c -1.220621,-0.68238 -1.190625,-0.23842 -1.190625,-17.62284 V 93.86058 l 0.649433,-0.649431 c 1.042892,-1.042895 2.53987,-0.842557 3.196812,0.427824 0.327316,0.632962 0.387088,3.240463 0.387088,16.886517 v 16.13797 l -0.595313,0.66625 c -0.708032,0.7924 -1.715677,1.06069 -2.447395,0.65163 z m 15.457772,-0.47427 -0.773398,-0.7734 v -16.14748 c 0,-11.270651 0.08872,-16.342213 0.293759,-16.792225 0.58873,-1.292119 2.28106,-1.591899 3.290141,-0.582816 l 0.649433,0.649431 -0.0084,16.48234 c -0.0089,17.40573 0.02207,16.96238 -1.230963,17.62974 -0.89341,0.47584 -1.381461,0.37351 -2.220558,-0.46559 z M 97.994025,77.546613 c -0.0039,-3.005325 -0.06928,-3.488071 -0.599342,-4.423947 -0.68,-1.200605 -1.9343,-2.136103 -3.389392,-2.527919 -0.659802,-0.177665 -10.3511,-0.24534 -28.336601,-0.197874 l -27.333851,0.07214 -1.058334,0.567158 c -2.310884,1.238398 -2.778124,2.342277 -2.778124,6.563452 v 3.320431 h 31.749998 31.749998 l -0.0044,-3.373437 z M 79.477545,62.916359 c 0,-3.030979 -0.0318,-3.218825 -0.649433,-3.836458 l -0.64943,-0.649433 H 66.248379 54.318076 l -0.64943,0.649433 c -0.617635,0.617633 -0.649433,0.805479 -0.649433,3.836458 v 3.187025 h 13.229166 13.229166 z"
         id="path4581" />
    </g>
  </g>
</svg>
