<?xml version="1.0" encoding="UTF-8" standalone="no"?>
<!-- Created with Inkscape (http://www.inkscape.org/) -->

<svg
   width="210mm"
   height="297mm"
   viewBox="0 0 210 297"
   version="1.1"
   id="svg5"
   sodipodi:docname="edit01.svg"
   inkscape:version="1.1.2 (0a00cf5339, 2022-02-04)"
   xmlns:inkscape="http://www.inkscape.org/namespaces/inkscape"
   xmlns:sodipodi="http://sodipodi.sourceforge.net/DTD/sodipodi-0.dtd"
   xmlns="http://www.w3.org/2000/svg"
   xmlns:svg="http://www.w3.org/2000/svg">
  <sodipodi:namedview
     id="namedview7"
     pagecolor="#ffffff"
     bordercolor="#666666"
     borderopacity="1.0"
     inkscape:pageshadow="2"
     inkscape:pageopacity="0.0"
     inkscape:pagecheckerboard="0"
     inkscape:document-units="mm"
     showgrid="false"
     inkscape:zoom="0.54866744"
     inkscape:cx="133.04963"
     inkscape:cy="554.06969"
     inkscape:window-width="1920"
     inkscape:window-height="1043"
     inkscape:window-x="0"
     inkscape:window-y="0"
     inkscape:window-maximized="1"
     inkscape:current-layer="layer1" />
  <defs
     id="defs2" />
  <g
     inkscape:label="Layer 1"
     inkscape:groupmode="layer"
     id="layer1">
    <path
       style="fill:#000000;stroke-width:0.0124023"
       id="path999"
       d="" />
    <g
       id="g2640"
       transform="matrix(1.1478372,0,0,1.2212101,-213.22831,20.305781)"
       style="fill:#2534ac;fill-opacity:1">
      <path
         style="fill:#2534ac;stroke-width:0.352778;fill-opacity:1"
         d="m 193.75777,190.6219 c -0.43881,-0.55952 -0.42633,-0.572 0.13319,-0.13319 0.58764,0.46086 0.77452,0.75056 0.48417,0.75056 -0.0733,0 -0.35107,-0.27782 -0.61736,-0.61737 z M 314.27638,97.0476 c 16.4915,-16.492361 30.06393,-29.986111 30.16094,-29.986111 0.097,0 -13.31666,13.49375 -29.80816,29.986111 -16.49151,16.49236 -30.06393,29.98611 -30.16095,29.98611 -0.097,0 13.31667,-13.49375 29.80817,-29.98611 z m 10.58333,11.99444 c 0.35119,-0.38805 0.7179,-0.70555 0.81491,-0.70555 0.097,0 -0.11094,0.3175 -0.46213,0.70555 -0.35119,0.38806 -0.7179,0.70556 -0.81491,0.70556 -0.097,0 0.11095,-0.3175 0.46213,-0.70556 z M 287.46527,70.236489 c 16.4915,-16.492361 30.06393,-29.98611 30.16094,-29.98611 0.097,0 -13.31666,13.493749 -29.80816,29.98611 -16.49151,16.492361 -30.06393,29.986111 -30.16095,29.986111 -0.097,0 13.31667,-13.49375 29.80817,-29.986111 z M 275.47082,59.653156 c 0.35119,-0.388055 0.7179,-0.705555 0.81491,-0.705555 0.097,0 -0.11094,0.3175 -0.46213,0.705555 -0.35118,0.388056 -0.71789,0.705556 -0.81491,0.705556 -0.097,0 0.11095,-0.3175 0.46213,-0.705556 z m 82.02084,-5.820833 c 3.00273,-3.007431 5.53889,-5.468056 5.6359,-5.468056 0.097,0 -2.28039,2.460625 -5.28313,5.468056 -3.00273,3.00743 -5.53889,5.468055 -5.6359,5.468055 -0.097,0 2.28039,-2.460625 5.28313,-5.468055 z M 330.68055,27.021212 c 3.00273,-3.00743 5.53889,-5.468055 5.6359,-5.468055 0.097,0 -2.28039,2.460625 -5.28313,5.468055 -3.00273,3.007431 -5.53889,5.468056 -5.6359,5.468056 -0.097,0 2.28039,-2.460625 5.28313,-5.468056 z"
         id="path2652" />
      <path
         style="fill:#2534ac;stroke-width:0.352778;fill-opacity:1"
         d="m 338.61631,45.806629 -13.40382,-13.49375 13.49375,13.403814 c 12.5414,12.457816 13.65237,13.583685 13.40382,13.583685 -0.0495,0 -6.12166,-6.072187 -13.49375,-13.493749 z m 23.78753,-23.8125 -0.85524,-0.970139 0.97014,0.855244 c 0.53358,0.470384 0.97014,0.906947 0.97014,0.970139 0,0.276674 -0.28568,0.0515 -1.08504,-0.855244 z"
         id="path2650" />
      <path
         style="fill:#2534ac;stroke-width:0.352778;fill-opacity:1"
         d="m 330.68055,191.10607 c 0,-0.0733 0.27781,-0.35107 0.61736,-0.61736 0.55952,-0.43881 0.572,-0.42633 0.13319,0.13319 -0.46086,0.58764 -0.75055,0.77452 -0.75055,0.48417 z m 7.11125,-15.38903 c 0,-0.48507 0.0801,-0.6835 0.17794,-0.44097 0.0979,0.24254 0.0979,0.63941 0,0.88195 -0.0979,0.24253 -0.17794,0.0441 -0.17794,-0.44098 z M 330.67878,53.744128 317.45138,40.426767 330.76874,53.65417 c 7.32455,7.275072 13.31736,13.267884 13.31736,13.317361 0,0.248581 -1.11353,-0.850004 -13.40732,-13.227403 z M 193.97916,53.303156 c 0.35118,-0.388055 0.71789,-0.705555 0.81491,-0.705555 0.097,0 -0.11095,0.3175 -0.46213,0.705555 -0.35119,0.388056 -0.7179,0.705556 -0.81491,0.705556 -0.097,0 0.11094,-0.3175 0.46213,-0.705556 z m 14.57413,-6.590987 c 0.25466,-0.101907 0.55893,-0.08937 0.67616,0.02785 0.11722,0.117225 -0.0911,0.200604 -0.46302,0.185286 -0.41097,-0.01693 -0.49456,-0.100521 -0.21314,-0.213137 z"
         id="path2648" />
      <path
         style="fill:#2534ac;stroke-width:0.352778;fill-opacity:1"
         d="m 236.252,182.15526 c 14.71283,-0.051 38.68408,-0.051 53.26944,2e-5 14.58535,0.051 2.54758,0.0927 -26.75062,0.0927 -29.29819,-1e-5 -41.23166,-0.0417 -26.51882,-0.0927 z m -33.81068,-60.06044 c 0,-29.395206 0.0417,-41.420518 0.0927,-26.722914 0.051,14.697604 0.051,38.748224 0,53.445834 -0.051,14.6976 -0.0927,2.67229 -0.0927,-26.72292 z M 337.9048,144.6726 c 0,-16.7834 0.0431,-23.64934 0.0958,-15.25764 0.0527,8.3917 0.0527,22.12358 0,30.51528 -0.0527,8.3917 -0.0958,1.52576 -0.0958,-15.25764 z M 204.03333,64.45885 c 0,-0.07325 0.27781,-0.351067 0.61736,-0.617361 0.55952,-0.43881 0.572,-0.426332 0.13319,0.133195 -0.46086,0.587639 -0.75055,0.774516 -0.75055,0.484166 z m 20.5493,-17.77018 c 8.48872,-0.05264 22.37934,-0.05264 30.86806,0 8.48871,0.05264 1.5434,0.09571 -15.43403,0.09571 -16.97743,0 -23.92274,-0.04307 -15.43403,-0.09571 z"
         id="path2646" />
      <path
         style="fill:#2534ac;stroke-width:0.352778;fill-opacity:1"
         d="m 193.94564,190.44552 -0.67204,-0.79375 0.79375,0.67203 c 0.74593,0.63155 0.95435,0.91547 0.67204,0.91547 -0.0669,0 -0.42413,-0.35719 -0.79375,-0.79375 z m -6.46502,-14.22871 c 0.0169,-0.41097 0.10052,-0.49456 0.21314,-0.21313 0.1019,0.25466 0.0894,0.55893 -0.0279,0.67615 -0.11723,0.11723 -0.20061,-0.0911 -0.18529,-0.46302 z M 313.9236,97.0476 c 16.49151,-16.492361 30.06393,-29.986111 30.16095,-29.986111 0.097,0 -13.31667,13.49375 -29.80817,29.986111 -16.4915,16.49236 -30.06393,29.98611 -30.16094,29.98611 -0.097,0 13.31666,-13.49375 29.80816,-29.98611 z m 10.75972,12.56681 c 0,-0.0733 0.27782,-0.35107 0.61736,-0.61737 0.55953,-0.43881 0.57201,-0.42633 0.1332,0.1332 -0.46086,0.58764 -0.75056,0.77452 -0.75056,0.48417 z M 287.46527,70.589267 c 16.4915,-16.492361 30.06393,-29.986111 30.16094,-29.986111 0.097,0 -13.31666,13.49375 -29.80816,29.986111 -16.49151,16.492361 -30.06393,29.986113 -30.16095,29.986113 -0.097,0 13.31667,-13.493752 29.80817,-29.986113 z M 274.94166,59.872739 c 0,-0.07325 0.27781,-0.351067 0.61736,-0.617361 0.55953,-0.43881 0.572,-0.426332 0.13319,0.133195 -0.46085,0.587639 -0.75055,0.774516 -0.75055,0.484166 z m 82.37361,-6.216805 c 2.90556,-2.910417 5.36222,-5.291667 5.45923,-5.291667 0.097,0 -2.20089,2.38125 -5.10645,5.291667 -2.90557,2.910417 -5.36222,5.291667 -5.45924,5.291667 -0.097,0 2.20089,-2.38125 5.10646,-5.291667 z m 10.43479,-17.13912 c 0.0169,-0.410966 0.10052,-0.494559 0.21314,-0.213137 0.10191,0.254662 0.0894,0.558933 -0.0278,0.676158 -0.11722,0.117225 -0.2006,-0.09114 -0.18528,-0.463021 z m 0.0279,-2.263658 c 0,-0.485069 0.0801,-0.683506 0.17794,-0.440972 0.0979,0.242535 0.0979,0.63941 0,0.881945 -0.0979,0.242534 -0.17794,0.0441 -0.17794,-0.440973 z m -36.74459,-7.231944 c 3.00274,-3.00743 5.5389,-5.468055 5.63591,-5.468055 0.097,0 -2.28039,2.460625 -5.28313,5.468055 -3.00273,3.007431 -5.53889,5.468056 -5.63591,5.468056 -0.097,0 2.2804,-2.460625 5.28313,-5.468056 z m 16.49236,-10.287804 c 0.24254,-0.09787 0.63941,-0.09787 0.88195,0 0.24253,0.09786 0.0441,0.177936 -0.44097,0.177936 -0.48507,0 -0.68351,-0.08007 -0.44098,-0.177936 z m 2.84428,-0.0074 c 0.25466,-0.101907 0.55893,-0.08937 0.67615,0.02785 0.11723,0.117225 -0.0911,0.200604 -0.46302,0.185286 -0.41097,-0.01693 -0.49456,-0.100521 -0.21313,-0.213136 z"
         id="path2644" />
      <path
         style="fill:#2534ac;stroke-width:0.352778;fill-opacity:1"
         d="m 204.22641,196.34397 c -5.92768,-1.63518 -11.6296,-6.37604 -14.22492,-11.8273 -2.53703,-5.32883 -2.37233,-0.9829 -2.37233,-62.59824 0,-62.392669 -0.20111,-57.433594 2.55373,-62.970829 2.62266,-5.271541 8.7418,-10.072936 14.59622,-11.45297 3.43879,-0.810607 66.37607,-0.806436 68.31698,0.0045 4.59423,1.919589 5.9313,7.853003 2.60127,11.543465 -2.45039,2.715626 0.002,2.530319 -36.09156,2.727197 l -32.33725,0.176389 -1.52942,1.073997 c -0.84118,0.590702 -1.92629,1.781327 -2.41136,2.645833 l -0.88194,1.571837 -0.10825,53.622221 c -0.0803,39.78875 -0.002,54.11402 0.30202,55.52854 0.5815,2.70194 2.95907,5.07952 5.66102,5.66102 1.41452,0.30442 15.73979,0.38234 55.52854,0.30202 l 53.62222,-0.10825 1.68359,-0.98964 c 0.92598,-0.5443 2.11661,-1.64382 2.64584,-2.44338 l 0.96224,-1.45374 0.17639,-32.30523 c 0.13947,-25.54449 0.27307,-32.52671 0.63836,-33.36356 0.25409,-0.58209 1.04507,-1.65846 1.75773,-2.39195 3.59101,-3.69591 9.87872,-2.47949 11.87457,2.29724 0.47935,1.14725 0.546,5.2565 0.546,33.66292 0,36.17681 0.1014,34.57897 -2.51671,39.65816 -0.75718,1.46895 -2.17365,3.56498 -3.14771,4.65785 -2.14995,2.41219 -6.16755,5.16102 -9.20233,6.29621 l -2.24297,0.83901 -57.32639,0.0593 c -47.51167,0.0492 -57.62552,-0.0232 -59.07358,-0.42266 z m 49.34408,-63.97819 c -2.2614,-1.379 -2.26612,-1.28814 0.88453,-17.02377 l 2.85068,-14.23747 30.16087,-30.162072 30.16086,-30.162074 13.14072,13.140716 13.14071,13.140715 -30.16207,30.160598 -30.16208,30.160597 -14.09861,2.82396 c -7.75424,1.55317 -14.26299,2.82336 -14.46389,2.82263 -0.2009,-7e-4 -0.85417,-0.29944 -1.45172,-0.66383 z m 85.30375,-86.567523 -13.14371,-13.147214 6.26737,-6.205857 c 3.44705,-3.413222 7.02711,-6.643037 7.95569,-7.177367 7.16601,-4.123519 16.57097,-2.858653 22.44873,3.019115 6.1159,6.115898 7.20585,16.020753 2.54242,23.104168 -0.75722,1.150171 -3.97553,4.670429 -7.15178,7.822794 l -5.77501,5.731577 z"
         id="path2642" />
    </g>
  </g>
</svg>
