<?xml version="1.0" encoding="UTF-8" standalone="no"?>
<!-- Created with Inkscape (http://www.inkscape.org/) -->

<svg
   width="210mm"
   height="297mm"
   viewBox="0 0 210 297"
   version="1.1"
   id="svg5"
   sodipodi:docname="delete02.svg"
   inkscape:version="1.1.2 (0a00cf5339, 2022-02-04)"
   xmlns:inkscape="http://www.inkscape.org/namespaces/inkscape"
   xmlns:sodipodi="http://sodipodi.sourceforge.net/DTD/sodipodi-0.dtd"
   xmlns="http://www.w3.org/2000/svg"
   xmlns:svg="http://www.w3.org/2000/svg">
  <sodipodi:namedview
     id="namedview7"
     pagecolor="#ffffff"
     bordercolor="#666666"
     borderopacity="1.0"
     inkscape:pageshadow="2"
     inkscape:pageopacity="0.0"
     inkscape:pagecheckerboard="0"
     inkscape:document-units="mm"
     showgrid="false"
     inkscape:zoom="0.54866744"
     inkscape:cx="133.04963"
     inkscape:cy="554.06969"
     inkscape:window-width="1920"
     inkscape:window-height="1043"
     inkscape:window-x="0"
     inkscape:window-y="0"
     inkscape:window-maximized="1"
     inkscape:current-layer="layer1" />
  <defs
     id="defs2" />
  <g
     inkscape:label="Layer 1"
     inkscape:groupmode="layer"
     id="layer1">
    <path
       style="fill:#000000;stroke-width:0.0124023"
       id="path999"
       d="" />
    <g
       id="g4814"
       transform="matrix(1.5300501,0,0,1.4448054,-56.622908,-38.722288)">
      <path
         style="fill:#d0eafb;stroke-width:0.264583"
         d="m 59.614078,182.43022 -0.641433,-0.7276 0.727604,0.64143 c 0.680056,0.59952 0.848939,0.81378 0.641433,0.81378 -0.04739,0 -0.374816,-0.32742 -0.727604,-0.72761 z m 91.698142,0.19844 c 0.26339,-0.29104 0.53843,-0.52917 0.61119,-0.52917 0.0728,0 -0.0832,0.23813 -0.3466,0.52917 -0.26339,0.29104 -0.53842,0.52917 -0.61119,0.52917 -0.0728,0 0.0832,-0.23813 0.3466,-0.52917 z m -95.666892,-4.16719 -0.641433,-0.7276 0.727604,0.64143 c 0.680056,0.59952 0.848939,0.81378 0.641433,0.81378 -0.04739,0 -0.374816,-0.32742 -0.727604,-0.72761 z m 99.900232,-0.0661 c 0.26339,-0.29104 0.53842,-0.52917 0.61118,-0.52917 0.0728,0 -0.0832,0.23813 -0.3466,0.52917 -0.26339,0.29104 -0.53842,0.52917 -0.61118,0.52917 -0.0728,0 0.0832,-0.23813 0.3466,-0.52917 z m -86.01472,-9.85573 -0.504029,-0.59531 0.595313,0.50403 c 0.559445,0.47366 0.715761,0.68659 0.504028,0.68659 -0.05021,0 -0.318098,-0.26789 -0.595312,-0.59531 z m 18.413679,-36.84323 c 2.397786,-2.40109 4.419142,-4.36562 4.491902,-4.36562 0.07276,0 -1.829533,1.96453 -4.227319,4.36562 -2.397786,2.4011 -4.419142,4.36563 -4.491903,4.36563 -0.07276,0 1.829533,-1.96453 4.22732,-4.36563 z m 48.815621,-30.29479 c -2.17917,-2.18281 -3.9026,-3.968748 -3.82984,-3.968748 0.0728,0 1.91525,1.785938 4.09442,3.968748 2.17918,2.18281 3.90261,3.96875 3.82985,3.96875 -0.0728,0 -1.91525,-1.78594 -4.09443,-3.96875 z M 55.136187,87.278771 c 0,-0.05494 0.208359,-0.263301 0.463021,-0.46302 0.419644,-0.329108 0.429002,-0.31975 0.09989,0.09989 -0.345643,0.44073 -0.562915,0.580888 -0.562915,0.363126 z m 100.384233,-0.495417 -0.50403,-0.595313 0.59531,0.504028 c 0.55945,0.473662 0.71576,0.686597 0.50403,0.686597 -0.0502,0 -0.3181,-0.26789 -0.59531,-0.595312 z m -4.23333,-4.233333 -0.50403,-0.595313 0.59531,0.504028 c 0.55945,0.473662 0.71576,0.686597 0.50403,0.686597 -0.0502,0 -0.3181,-0.267891 -0.59531,-0.595312 z m -91.652987,0.230834 c 0,-0.05494 0.20836,-0.263302 0.463021,-0.463021 0.419644,-0.329107 0.429002,-0.319749 0.09989,0.09989 -0.345644,0.440729 -0.562916,0.580887 -0.562916,0.363126 z"
         id="path4828" />
      <path
         style="fill:#abdaf9;stroke-width:0.264583"
         d="m 152.37056,181.57033 c 0.26339,-0.29104 0.53842,-0.52917 0.61118,-0.52917 0.0728,0 -0.0832,0.23813 -0.3466,0.52917 -0.26339,0.29104 -0.53842,0.52916 -0.61118,0.52916 -0.0728,0 0.0832,-0.23812 0.3466,-0.52916 z m -93.828539,-0.19844 c -0.329107,-0.41964 -0.319749,-0.429 0.0999,-0.0999 0.254661,0.19973 0.463021,0.40808 0.463021,0.46303 0,0.21776 -0.217272,0.0776 -0.562916,-0.36313 z m -1.711181,-1.71979 -0.504028,-0.59531 0.595312,0.50403 c 0.327422,0.27721 0.595313,0.5451 0.595313,0.59531 0,0.21173 -0.212935,0.0554 -0.686597,-0.50403 z m 97.65638,-0.19844 c 0.26339,-0.29104 0.53843,-0.52916 0.61119,-0.52916 0.0728,0 -0.0832,0.23812 -0.3466,0.52916 -0.26339,0.29104 -0.53842,0.52917 -0.61119,0.52917 -0.0728,0 0.0832,-0.23813 0.3466,-0.52917 z M 81.859102,137.78179 c 0.937477,-0.94589 1.764035,-1.71979 1.836796,-1.71979 0.07276,0 -0.634736,0.7739 -1.572213,1.71979 -0.937476,0.94588 -1.764035,1.71979 -1.836795,1.71979 -0.07276,0 0.634735,-0.77391 1.572212,-1.71979 z m 91.302138,-0.55122 c 0.0127,-0.30822 0.0754,-0.37091 0.15985,-0.15985 0.0764,0.191 0.067,0.4192 -0.0209,0.50712 -0.0879,0.0879 -0.15045,-0.0684 -0.13896,-0.34727 z M 56.326812,86.05575 c 0.263389,-0.291042 0.53842,-0.529167 0.611181,-0.529167 0.07276,0 -0.08321,0.238125 -0.346598,0.529167 -0.263389,0.291041 -0.53842,0.529166 -0.611181,0.529166 -0.07276,0 0.08321,-0.238125 0.346598,-0.529166 z m 98.135278,-0.33073 -0.50403,-0.595312 0.59531,0.504028 c 0.55944,0.473662 0.71576,0.686597 0.50403,0.686597 -0.0502,0 -0.3181,-0.267891 -0.59531,-0.595313 z m -2.11667,-2.116666 -0.50403,-0.595313 0.59531,0.504028 c 0.55945,0.473662 0.71576,0.686597 0.50403,0.686597 -0.0502,0 -0.3181,-0.26789 -0.59531,-0.595312 z m -93.505067,-0.03375 c 0,-0.05494 0.20836,-0.263302 0.463021,-0.463021 0.419644,-0.329107 0.429002,-0.319749 0.0999,0.0999 -0.345644,0.440729 -0.562916,0.580887 -0.562916,0.363126 z"
         id="path4826" />
      <path
         style="fill:#8fcdf8;stroke-width:0.264583"
         d="m 57.748271,180.57814 c -0.329107,-0.41964 -0.319749,-0.429 0.09989,-0.0999 0.254661,0.19973 0.463021,0.40808 0.463021,0.46303 0,0.21776 -0.217272,0.0776 -0.562916,-0.36313 z m 95.680619,-0.0661 c 0.26339,-0.29104 0.53842,-0.52916 0.61118,-0.52916 0.0728,0 -0.0832,0.23812 -0.3466,0.52916 -0.26339,0.29105 -0.53842,0.52917 -0.61118,0.52917 -0.0728,0 0.0832,-0.23812 0.3466,-0.52917 z m -74.744788,-39.5552 c 0.790422,-0.80037 1.496664,-1.45521 1.569424,-1.45521 0.07276,0 -0.514419,0.65484 -1.30484,1.45521 -0.790422,0.80036 -1.496664,1.45521 -1.569424,1.45521 -0.07276,0 0.514419,-0.65485 1.30484,-1.45521 z M 57.78202,84.600541 c 0.493655,-0.509323 0.957086,-0.926041 1.029847,-0.926041 0.07276,0 -0.271609,0.416718 -0.765264,0.926041 -0.493655,0.509323 -0.957086,0.926042 -1.029846,0.926042 -0.07276,0 0.271608,-0.416719 0.765263,-0.926042 z m 95.62173,0.06615 -0.50403,-0.595312 0.59532,0.504028 c 0.55944,0.473662 0.71576,0.686597 0.50402,0.686597 -0.0502,0 -0.31809,-0.267891 -0.59531,-0.595313 z"
         id="path4824" />
      <path
         style="fill:#75c3f7;stroke-width:0.264583"
         d="m 96.411185,160.59548 c 0,-0.04 0.922734,-0.96276 2.050521,-2.05052 l 2.050524,-1.97776 -1.977756,2.05053 c -1.836894,1.90447 -2.123289,2.17124 -2.123289,1.97775 z M 76.567436,143.10585 c 0,-0.0549 0.208359,-0.2633 0.463021,-0.46302 0.419645,-0.32911 0.429003,-0.31975 0.0999,0.0999 -0.345644,0.44073 -0.562917,0.58088 -0.562917,0.36312 z m 59.928124,-22.65427 c 1.88757,-1.89177 3.49148,-3.43958 3.56424,-3.43958 0.0728,0 -1.41209,1.54781 -3.29966,3.43958 -1.88757,1.89177 -3.49148,3.43958 -3.56424,3.43958 -0.0728,0 1.41209,-1.54781 3.29966,-3.43958 z"
         id="path4822" />
      <path
         style="fill:#66bcf6;stroke-width:0.264583"
         d="m 105.53931,151.40783 c 2.90769,-2.91042 5.34624,-5.29167 5.419,-5.29167 0.0728,0 -2.24673,2.38125 -5.15442,5.29167 -2.90769,2.91042 -5.34623,5.29167 -5.41899,5.29167 -0.0728,0 2.24672,-2.38125 5.15441,-5.29167 z m 17.85925,-36.64491 -9.39003,-9.39283 3.83399,-3.77019 3.83398,-3.770193 -3.70275,3.773653 -3.70276,3.77364 9.40017,9.38938 c 5.17009,5.16415 9.33655,9.38937 9.2588,9.38937 -0.0777,0 -4.36688,-4.22677 -9.5314,-9.39283 z m -14.94883,-3.83634 c 1.01084,-1.01864 1.89742,-1.85208 1.97018,-1.85208 0.0728,0 -0.69476,0.83344 -1.7056,1.85208 -1.01084,1.01865 -1.89742,1.85208 -1.97018,1.85208 -0.0728,0 0.69476,-0.83343 1.7056,-1.85208 z"
         id="path4820" />
      <path
         style="fill:#51b3f5;stroke-width:0.264583"
         d="m 102.95962,200.18052 c 0.1819,-0.0734 0.47956,-0.0734 0.66146,0 0.1819,0.0734 0.0331,0.13345 -0.33073,0.13345 -0.3638,0 -0.51263,-0.0601 -0.33073,-0.13345 z m 4.7625,0 c 0.1819,-0.0734 0.47956,-0.0734 0.66146,0 0.1819,0.0734 0.0331,0.13345 -0.33073,0.13345 -0.3638,0 -0.51263,-0.0601 -0.33073,-0.13345 z m 13.42761,-64.38311 c 4.3638,-4.36562 7.99372,-7.9375 8.06648,-7.9375 0.0728,0 -3.4381,3.57188 -7.8019,7.9375 -4.36381,4.36563 -7.99373,7.9375 -8.06649,7.9375 -0.0728,0 3.4381,-3.57187 7.80191,-7.9375 z m -83.169683,-0.79375 c 0,-0.3638 0.06005,-0.51263 0.133452,-0.33073 0.0734,0.18191 0.0734,0.47956 0,0.66146 -0.0734,0.1819 -0.133452,0.0331 -0.133452,-0.33073 z m 135.202073,0 c 0,-0.3638 0.0601,-0.51263 0.13346,-0.33073 0.0734,0.18191 0.0734,0.47956 0,0.66146 -0.0734,0.1819 -0.13346,0.0331 -0.13346,-0.33073 z m -135.202073,-4.7625 c 0,-0.3638 0.06005,-0.51263 0.133452,-0.33073 0.0734,0.18191 0.0734,0.47956 0,0.66146 -0.0734,0.1819 -0.133452,0.0331 -0.133452,-0.33073 z m 135.202073,0 c 0,-0.3638 0.0601,-0.51263 0.13346,-0.33073 0.0734,0.18191 0.0734,0.47956 0,0.66146 -0.0734,0.1819 -0.13346,0.0331 -0.13346,-0.33073 z m -75.315727,-8.73125 c 4.800537,-4.80218 8.787777,-8.73125 8.860537,-8.73125 0.0728,0 -3.79542,3.92907 -8.595954,8.73125 -4.800533,4.80219 -8.787775,8.73125 -8.860535,8.73125 -0.07276,0 3.795418,-3.92906 8.595952,-8.73125 z m 21.958997,-3.24114 -9.259,-9.32656 9.32656,9.25899 c 8.66805,8.60525 9.44558,9.39413 9.259,9.39413 -0.0372,0 -4.23411,-4.19695 -9.32656,-9.32656 z m 16.93093,-17.19792 -3.43576,-3.505726 3.50573,3.435766 c 3.25653,3.19154 3.62565,3.57569 3.43576,3.57569 -0.0385,0 -1.61605,-1.57758 -3.50573,-3.50573 z m -33.7967,-36.092411 c 0.1819,-0.0734 0.47956,-0.0734 0.66146,0 0.1819,0.0734 0.0331,0.133452 -0.33073,0.133452 -0.3638,0 -0.51263,-0.06005 -0.33073,-0.133452 z m 4.7625,0 c 0.1819,-0.0734 0.47956,-0.0734 0.66146,0 0.1819,0.0734 0.0331,0.133452 -0.33073,0.133452 -0.3638,0 -0.51263,-0.06005 -0.33073,-0.133452 z"
         id="path4818" />
      <path
         style="fill:#25a0f3;stroke-width:0.264583"
         d="m 101.00731,200.09283 c -27.394392,-1.96596 -50.836666,-20.1388 -59.475066,-46.10606 -3.843843,-11.55469 -4.496972,-24.28212 -1.852983,-36.1088 5.69062,-25.454412 25.81908,-45.606768 51.175674,-51.236441 9.551595,-2.120644 20.108315,-2.124735 29.561115,-0.01146 25.47322,5.694826 45.6026,25.80034 51.23643,51.175671 2.12562,9.57396 2.12562,20.05936 0,29.63333 -5.61671,25.29825 -25.8714,45.55271 -51.16421,51.16367 -6.01012,1.33329 -13.58854,1.91295 -19.48096,1.49008 z M 80.781883,167.40491 c 9.780881,-2.82419 11.264812,-3.34978 13.170341,-4.66478 1.572181,-1.08496 35.267296,-34.53457 35.267296,-35.01034 0,-0.34717 -18.30582,-18.65529 -18.65295,-18.65529 -0.25164,0 -12.573923,12.30454 -28.086276,28.04583 -7.353652,7.46218 -7.782446,8.02669 -9.043847,11.90625 -1.738768,5.34775 -4.806511,16.36398 -4.806511,17.26013 0,1.95623 1.367033,3.35731 3.288406,3.37033 0.571695,0.004 4.560289,-1.00959 8.863541,-2.25213 z m 56.411877,-47.41635 c 5.02844,-5.10767 5.3889,-5.73216 5.3833,-9.32656 -0.006,-3.56796 -0.48147,-4.38076 -5.52187,-9.43088 -5.02821,-5.03789 -5.83256,-5.508567 -9.42317,-5.514161 -3.60908,-0.0056 -4.21505,0.346544 -9.39271,5.458751 l -4.23333,4.17982 9.39131,9.40011 c 5.16522,5.17006 9.4594,9.40011 9.54261,9.40011 0.0832,0 1.99746,-1.87524 4.25386,-4.16719 z"
         id="path4816" />
    </g>
  </g>
</svg>
