<?xml version="1.0" encoding="UTF-8" standalone="no"?>
<!-- Created with Inkscape (http://www.inkscape.org/) -->

<svg
   width="210mm"
   height="297mm"
   viewBox="0 0 210 297"
   version="1.1"
   id="svg5"
   inkscape:version="1.1.2 (0a00cf5339, 2022-02-04)"
   sodipodi:docname="empty_square.svg"
   xmlns:inkscape="http://www.inkscape.org/namespaces/inkscape"
   xmlns:sodipodi="http://sodipodi.sourceforge.net/DTD/sodipodi-0.dtd"
   xmlns="http://www.w3.org/2000/svg"
   xmlns:svg="http://www.w3.org/2000/svg">
  <sodipodi:namedview
     id="namedview7"
     pagecolor="#ffffff"
     bordercolor="#666666"
     borderopacity="1.0"
     inkscape:pageshadow="2"
     inkscape:pageopacity="0.0"
     inkscape:pagecheckerboard="0"
     inkscape:document-units="mm"
     showgrid="false"
     inkscape:zoom="0.73807767"
     inkscape:cx="293.32956"
     inkscape:cy="430.84897"
     inkscape:window-width="1920"
     inkscape:window-height="1043"
     inkscape:window-x="0"
     inkscape:window-y="0"
     inkscape:window-maximized="1"
     inkscape:current-layer="svg5" />
  <defs
     id="defs2" />
  <g
     inkscape:label="Layer 1"
     inkscape:groupmode="layer"
     id="layer1" />
  <g
     id="g1694"
     transform="matrix(1.8382395,0,0,1.8108824,-384.14909,3.1679813)"
     style="fill:#000000">
    <path
       style="fill:#000000;fill-opacity:1;stroke-width:0.22087"
       d="m 230.95661,137.89536 c 0.15185,-0.0613 0.40033,-0.0613 0.55217,0 0.15185,0.0613 0.0276,0.1114 -0.27608,0.1114 -0.3037,0 -0.42794,-0.0501 -0.27609,-0.1114 z m 69.79478,0 c 0.15184,-0.0613 0.40032,-0.0613 0.55217,0 0.15185,0.0613 0.0276,0.1114 -0.27609,0.1114 -0.30369,0 -0.42793,-0.0501 -0.27608,-0.1114 z m -83.68252,-5.98285 c -0.27473,-0.35032 -0.26692,-0.35813 0.0834,-0.0834 0.36792,0.28853 0.48492,0.46991 0.30313,0.46991 -0.0459,0 -0.2198,-0.17394 -0.38652,-0.38652 z m -1.54609,-1.54609 c -0.27473,-0.35031 -0.26692,-0.35812 0.0834,-0.0834 0.21258,0.16672 0.38652,0.34066 0.38652,0.38652 0,0.18178 -0.18138,0.0648 -0.46992,-0.30313 z m 100.74469,0.30313 c 0,-0.0459 0.17394,-0.2198 0.38652,-0.38652 0.35032,-0.27473 0.35813,-0.26692 0.0834,0.0834 -0.28854,0.36791 -0.46992,0.48491 -0.46992,0.30313 z m -84.64825,-2.93419 c 0.15185,-0.0613 0.40032,-0.0613 0.55217,0 0.15185,0.0613 0.0276,0.1114 -0.27609,0.1114 -0.30369,0 -0.42793,-0.0501 -0.27608,-0.1114 z m 68.46956,0 c 0.15185,-0.0613 0.40032,-0.0613 0.55217,0 0.15185,0.0613 0.0276,0.1114 -0.27608,0.1114 -0.3037,0 -0.42794,-0.0501 -0.27609,-0.1114 z m -76.61469,-3.77416 c -0.27473,-0.35031 -0.26692,-0.35812 0.0834,-0.0834 0.21259,0.16673 0.38652,0.34066 0.38652,0.38652 0,0.18179 -0.18137,0.0648 -0.46991,-0.30313 z m 84.84208,0.30313 c 0,-0.0459 0.17393,-0.21979 0.38652,-0.38652 0.35031,-0.27473 0.35813,-0.26692 0.0834,0.0834 -0.28853,0.36792 -0.46991,0.48492 -0.46991,0.30313 z m -98.69382,-7.86791 c 0,-0.30369 0.0501,-0.42793 0.11141,-0.27609 0.0613,0.15185 0.0613,0.40033 0,0.55218 -0.0613,0.15185 -0.11141,0.0276 -0.11141,-0.27609 z m 112.86434,0 c 0,-0.30369 0.0501,-0.42793 0.11141,-0.27609 0.0613,0.15185 0.0613,0.40033 0,0.55218 -0.0613,0.15185 -0.11141,0.0276 -0.11141,-0.27609 z m -102.70434,-0.66261 c 0,-0.30369 0.0501,-0.42793 0.11141,-0.27608 0.0613,0.15184 0.0613,0.40032 0,0.55217 -0.0613,0.15185 -0.11141,0.0276 -0.11141,-0.27609 z m 92.54434,0 c 0,-0.30369 0.0501,-0.42793 0.11141,-0.27608 0.0613,0.15184 0.0613,0.40032 0,0.55217 -0.0613,0.15185 -0.11141,0.0276 -0.11141,-0.27609 z M 219.78235,47.264252 c 0,-0.303696 0.0501,-0.427935 0.11141,-0.276087 0.0613,0.151848 0.0613,0.400326 0,0.552174 -0.0613,0.151847 -0.11141,0.02761 -0.11141,-0.276087 z m 92.54434,0 c 0,-0.303696 0.0501,-0.427935 0.11141,-0.276087 0.0613,0.151848 0.0613,0.400326 0,0.552174 -0.0613,0.151847 -0.11141,0.02761 -0.11141,-0.276087 z M 209.62235,46.601643 c 0,-0.303696 0.0501,-0.427935 0.11141,-0.276087 0.0613,0.151848 0.0613,0.400326 0,0.552174 -0.0613,0.151848 -0.11141,0.02761 -0.11141,-0.276087 z m 112.86434,0 c 0,-0.303696 0.0501,-0.427935 0.11141,-0.276087 0.0613,0.151848 0.0613,0.400326 0,0.552174 -0.0613,0.151848 -0.11141,0.02761 -0.11141,-0.276087 z m -99.2053,-7.372086 c 0,-0.04586 0.17394,-0.219799 0.38652,-0.386521 0.35032,-0.274734 0.35813,-0.266921 0.0834,0.08339 -0.28853,0.367913 -0.46991,0.484915 -0.46991,0.303131 z m 85.22747,-0.303131 c -0.27473,-0.350311 -0.26692,-0.358124 0.0834,-0.08339 0.21258,0.166722 0.38652,0.340657 0.38652,0.386521 0,0.181784 -0.18138,0.06478 -0.46992,-0.303131 z m -76.88964,-3.735408 c 0.15185,-0.06127 0.40032,-0.06127 0.55217,0 0.15185,0.06127 0.0276,0.111404 -0.27609,0.111404 -0.30369,0 -0.42793,-0.05013 -0.27608,-0.111404 z m 68.46956,0 c 0.15185,-0.06127 0.40032,-0.06127 0.55217,0 0.15185,0.06127 0.0276,0.111404 -0.27608,0.111404 -0.3037,0 -0.42794,-0.05013 -0.27609,-0.111404 z M 215.33009,32.82434 c 0,-0.04586 0.17393,-0.219799 0.38652,-0.386521 0.35031,-0.274734 0.35812,-0.266921 0.0834,0.08339 -0.28854,0.367913 -0.46991,0.484915 -0.46991,0.303131 z m 101.13008,-0.303131 c -0.27473,-0.350311 -0.26692,-0.358124 0.0834,-0.08339 0.36791,0.288537 0.48491,0.469912 0.30313,0.469912 -0.0459,0 -0.2198,-0.173935 -0.38652,-0.386522 z m -99.58399,-1.242955 c 0,-0.04586 0.17393,-0.2198 0.38652,-0.386522 0.35031,-0.274733 0.35812,-0.266921 0.0834,0.08339 -0.28854,0.367913 -0.46991,0.484915 -0.46991,0.303132 z m 98.0379,-0.303132 c -0.27473,-0.350311 -0.26692,-0.358123 0.0834,-0.08339 0.36792,0.288537 0.48492,0.469912 0.30313,0.469912 -0.0459,0 -0.2198,-0.173935 -0.38652,-0.386522 z m -83.95747,-5.944103 c 0.15185,-0.06127 0.40033,-0.06127 0.55217,0 0.15185,0.06127 0.0276,0.111403 -0.27608,0.111403 -0.3037,0 -0.42794,-0.05013 -0.27609,-0.111403 z m 69.79478,0 c 0.15184,-0.06127 0.40032,-0.06127 0.55217,0 0.15185,0.06127 0.0276,0.111403 -0.27609,0.111403 -0.30369,0 -0.42793,-0.05013 -0.27608,-0.111403 z"
       id="path1698" />
    <path
       style="fill:#000000;fill-opacity:1;stroke-width:0.22087"
       d="m 230.18744,137.81725 c -8.32804,-0.89374 -15.98226,-6.73226 -18.92958,-14.43921 -1.66498,-4.35377 -1.55995,-1.53388 -1.55995,-41.879008 0,-40.345131 -0.10503,-37.525233 1.55995,-41.879004 2.11912,-5.54127 7.45195,-10.874105 12.99322,-12.993219 4.35377,-1.664985 1.53387,-1.559947 41.879,-1.559947 40.34514,0 37.52524,-0.105038 41.87901,1.559947 5.54127,2.119114 10.8741,7.451949 12.99322,12.993219 1.66498,4.353771 1.55995,1.533873 1.55995,41.879004 0,40.345128 0.10503,37.525238 -1.55995,41.879008 -2.11946,5.54216 -7.45594,10.87807 -12.99322,12.99182 -4.33456,1.65464 -1.26068,1.53556 -40.77466,1.57945 -19.49726,0.0216 -36.1684,-0.0378 -37.04699,-0.13206 z m 73.46415,-10.64135 c 3.89505,-1.42238 6.96479,-4.55467 8.2205,-8.388 l 0.53017,-1.61844 V 81.499032 45.8286 l -0.53017,-1.618439 c -1.28147,-3.911963 -4.54117,-7.171668 -8.45313,-8.453137 l -1.61844,-0.530163 h -35.67044 -35.67043 l -1.61844,0.530163 c -3.91196,1.281469 -7.17166,4.541174 -8.45313,8.453137 l -0.53017,1.618439 v 35.670432 35.670428 l 0.53017,1.61844 c 1.46669,4.4774 5.56724,8.1009 10.01648,8.85119 0.64475,0.10872 16.79792,0.18144 36.38813,0.16381 l 35.2287,-0.0317 z"
       id="path1696" />
  </g>
</svg>
