<?xml version="1.0" encoding="UTF-8" standalone="no"?>
<!-- Created with Inkscape (http://www.inkscape.org/) -->

<svg
   width="210mm"
   height="297mm"
   viewBox="0 0 210 297"
   version="1.1"
   id="svg5"
   inkscape:version="1.1.2 (0a00cf5339, 2022-02-04)"
   sodipodi:docname="filled_square.svg"
   xmlns:inkscape="http://www.inkscape.org/namespaces/inkscape"
   xmlns:sodipodi="http://sodipodi.sourceforge.net/DTD/sodipodi-0.dtd"
   xmlns="http://www.w3.org/2000/svg"
   xmlns:svg="http://www.w3.org/2000/svg">
  <sodipodi:namedview
     id="namedview7"
     pagecolor="#ffffff"
     bordercolor="#666666"
     borderopacity="1.0"
     inkscape:pageshadow="2"
     inkscape:pageopacity="0.0"
     inkscape:pagecheckerboard="0"
     inkscape:document-units="mm"
     showgrid="false"
     inkscape:zoom="0.66368547"
     inkscape:cx="371.41088"
     inkscape:cy="552.97278"
     inkscape:window-width="1920"
     inkscape:window-height="1043"
     inkscape:window-x="0"
     inkscape:window-y="0"
     inkscape:window-maximized="1"
     inkscape:current-layer="layer1" />
  <defs
     id="defs2" />
  <g
     inkscape:label="Layer 1"
     inkscape:groupmode="layer"
     id="layer1">
    <rect
       style="fill:#ffffff;stroke-width:0.407743"
       id="rect312"
       width="133.85718"
       height="98.859184"
       x="38.228466"
       y="106.25733" />
    <g
       id="g4832"
       transform="matrix(1.8476198,0,0,1.8195227,-440.7293,-62.544064)"
       style="fill:#000000">
      <path
         style="fill:#000000;fill-opacity:1;stroke-width:0.264583"
         d="m 247.74662,165.95484 c -0.3291,-0.41964 -0.31975,-0.429 0.0999,-0.0999 0.25466,0.19972 0.46302,0.40808 0.46302,0.46302 0,0.21776 -0.21727,0.0776 -0.56292,-0.36313 z m 94.75458,0.36313 c 0,-0.0549 0.20836,-0.2633 0.46302,-0.46302 0.41965,-0.32911 0.42901,-0.31975 0.0999,0.0999 -0.34565,0.44073 -0.56292,0.58089 -0.56292,0.36313 z m -96.07749,-1.68604 c -0.32911,-0.41965 -0.31975,-0.42901 0.0999,-0.0999 0.25466,0.19972 0.46302,0.40808 0.46302,0.46302 0,0.21777 -0.21727,0.0776 -0.56291,-0.36312 z m 97.40041,0.36312 c 0,-0.0549 0.20836,-0.2633 0.46302,-0.46302 0.41964,-0.32911 0.429,-0.31975 0.0999,0.0999 -0.34564,0.44073 -0.56291,0.58089 -0.56291,0.36312 z M 272.4578,113.05326 c 0.25743,-0.0671 0.61462,-0.0627 0.79375,0.01 0.17913,0.0725 -0.0315,0.12736 -0.46805,0.12197 -0.43657,-0.005 -0.58313,-0.0647 -0.3257,-0.13177 z M 246.19287,70.009642 c 0,-0.05494 0.20836,-0.263301 0.46302,-0.463021 0.41965,-0.329107 0.42901,-0.319749 0.0999,0.0999 -0.34565,0.440729 -0.56292,0.580887 -0.56292,0.363126 z m 97.86208,-0.363126 c -0.32911,-0.419644 -0.31975,-0.429002 0.0999,-0.0999 0.25466,0.19972 0.46302,0.408079 0.46302,0.463021 0,0.217761 -0.21728,0.0776 -0.56292,-0.363126 z m -96.53916,-0.95979 c 0,-0.05494 0.20836,-0.263302 0.46302,-0.463021 0.41964,-0.329108 0.429,-0.319749 0.0999,0.0999 -0.34564,0.440729 -0.56291,0.580887 -0.56291,0.363126 z M 342.73203,68.3236 c -0.3291,-0.419644 -0.31974,-0.429003 0.0999,-0.0999 0.44073,0.345643 0.58089,0.562915 0.36312,0.562915 -0.0549,0 -0.2633,-0.208359 -0.46302,-0.46302 z"
         id="path4838" />
      <path
         style="fill:#000000;fill-opacity:1;stroke-width:0.264583"
         d="m 289.51839,139.78431 c 0.1819,-0.0734 0.47956,-0.0734 0.66146,0 0.1819,0.0734 0.0331,0.13345 -0.33073,0.13345 -0.3638,0 -0.51263,-0.0601 -0.33073,-0.13345 z m 4.16719,-1.67686 c 0.26339,-0.29104 0.53842,-0.52917 0.61118,-0.52917 0.0728,0 -0.0832,0.23813 -0.3466,0.52917 -0.26339,0.29104 -0.53842,0.52917 -0.61118,0.52917 -0.0728,0 0.0832,-0.23813 0.3466,-0.52917 z m -9.16188,-16.33802 c -0.3291,-0.41964 -0.31975,-0.429 0.0999,-0.0999 0.44073,0.34565 0.58089,0.56292 0.36312,0.56292 -0.0549,0 -0.2633,-0.20836 -0.46302,-0.46302 z m -2.91041,-2.64583 c -0.32911,-0.41965 -0.31975,-0.42901 0.0999,-0.0999 0.25466,0.19972 0.46302,0.40808 0.46302,0.46302 0,0.21776 -0.21727,0.0776 -0.56291,-0.36312 z m -2.91042,-2.64584 c -0.32911,-0.41964 -0.31975,-0.429 0.0999,-0.0999 0.25466,0.19972 0.46302,0.40808 0.46302,0.46302 0,0.21776 -0.21728,0.0776 -0.56292,-0.36313 z m 35.09104,-20.174474 c 0.26339,-0.291042 0.53842,-0.529167 0.61118,-0.529167 0.0728,0 -0.0832,0.238125 -0.3466,0.529167 -0.26339,0.291041 -0.53842,0.529166 -0.61118,0.529166 -0.0728,0 0.0832,-0.238125 0.3466,-0.529166 z m 3.90764,-1.770854 c 0.25743,-0.06708 0.61462,-0.06267 0.79375,0.0098 0.17913,0.07248 -0.0315,0.127363 -0.46806,0.12197 -0.43656,-0.0054 -0.58312,-0.06469 -0.32569,-0.131773 z"
         id="path4836" />
      <path
         style="fill:#000000;fill-opacity:1;stroke-width:0.264583"
         d="m 262.8934,173.25892 c -2.5832,-0.37574 -7.07324,-1.93241 -9.39028,-3.25555 -2.85285,-1.62911 -4.6167,-3.03753 -7.00195,-5.591 -3.2625,-3.4926 -5.36419,-7.39685 -6.69776,-12.44229 l -0.622,-2.35326 V 117.07308 84.529328 l 0.70357,-2.544995 c 1.41266,-5.110028 3.73523,-9.102091 7.46625,-12.833108 3.73358,-3.733585 7.58436,-5.976482 12.76304,-7.433877 l 2.61506,-0.735936 h 32.54375 32.54375 l 2.35325,0.621994 c 5.6686,1.498281 9.17816,3.505968 13.25472,7.58253 4.07656,4.076561 6.08425,7.586121 7.58253,13.254724 l 0.622,2.353251 v 32.411459 32.41145 l -0.622,2.35326 c -1.49828,5.6686 -3.50597,9.17816 -7.58253,13.25472 -4.02256,4.02256 -7.4281,5.9897 -13.11076,7.57315 l -2.23263,0.62212 -31.75,0.0422 c -18.38432,0.0244 -32.46059,-0.0612 -33.43801,-0.20334 z m 29.49761,-34.11555 c 0.88634,-0.42198 3.78582,-3.7572 15.72629,-18.08962 8.05178,-9.66474 14.79755,-17.87372 14.99061,-18.24218 1.10876,-2.11614 0.61227,-4.752954 -1.23124,-6.539016 -1.66942,-1.61739 -3.30029,-2.059834 -5.35643,-1.45316 -0.77188,0.227745 -1.72251,0.684556 -2.11253,1.015132 -0.39001,0.330578 -6.20384,7.209024 -12.91963,15.285424 -6.71578,8.07641 -12.26991,14.66497 -12.34251,14.64126 -0.0726,-0.0237 -2.99384,-2.64309 -6.49167,-5.82084 -3.49782,-3.17774 -6.73287,-5.97945 -7.189,-6.22602 -2.12163,-1.1469 -4.55867,-0.81054 -6.39564,0.88272 -2.04555,1.88551 -2.53582,4.78105 -1.18077,6.97357 0.48909,0.79137 15.71239,14.8625 18.38876,16.99702 1.81116,1.44447 3.87982,1.63927 6.11376,0.57571 z"
         id="path4834" />
    </g>
  </g>
</svg>
